<svg width="32" height="32" viewBox="0 0 32 32" xmlns="http://www.w3.org/2000/svg">
  <defs>
    <linearGradient id="favGradient" x1="0%" y1="0%" x2="100%" y2="100%">
      <stop offset="0%" style="stop-color:#0055D4"/>
      <stop offset="100%" style="stop-color:#0066FF"/>
    </linearGradient>
  </defs>
  
  <!-- Shield -->
  <path d="M16 1 L28 5 L28 13 C28 21 23 27 16 31 C9 27 4 21 4 13 L4 5 Z" 
        fill="url(#favGradient)"/>
  
  <!-- Simplified key -->
  <g transform="translate(16, 15)">
    <circle cx="-3" cy="0" r="3.5" fill="none" stroke="white" stroke-width="1.5"/>
    <circle cx="-3" cy="0" r="1.5" fill="white"/>
    <rect x="0" y="-1" width="7" height="2" rx="1" fill="white"/>
    <rect x="5" y="-1" width="1.5" height="4" rx="0.5" fill="white"/>
  </g>
  
  <!-- Mini bars -->
  <g transform="translate(20, 7)">
    <rect x="0" y="3" width="2" height="3" rx="0.3" fill="white" opacity="0.9"/>
    <rect x="2.5" y="1.5" width="2" height="4.5" rx="0.3" fill="white" opacity="0.9"/>
    <rect x="5" y="0" width="2" height="6" rx="0.3" fill="white" opacity="0.9"/>
  </g>
</svg>
